<?xml version="1.0" encoding="UTF-8" standalone="no"?>
<!-- Created with Inkscape (http://www.inkscape.org/) -->

<svg
   width="210mm"
   height="297mm"
   viewBox="0 0 210 297"
   version="1.1"
   id="svg1"
   xml:space="preserve"
   inkscape:version="1.3.2 (091e20e, 2023-11-25, custom)"
   sodipodi:docname="livia top.svg"
   xmlns:inkscape="http://www.inkscape.org/namespaces/inkscape"
   xmlns:sodipodi="http://sodipodi.sourceforge.net/DTD/sodipodi-0.dtd"
   xmlns="http://www.w3.org/2000/svg"
   xmlns:svg="http://www.w3.org/2000/svg"><sodipodi:namedview
     id="namedview1"
     pagecolor="#ffffff"
     bordercolor="#000000"
     borderopacity="0.25"
     inkscape:showpageshadow="2"
     inkscape:pageopacity="0.0"
     inkscape:pagecheckerboard="0"
     inkscape:deskcolor="#d1d1d1"
     inkscape:document-units="mm"
     inkscape:zoom="1.9830139"
     inkscape:cx="413.25984"
     inkscape:cy="634.64003"
     inkscape:window-width="1920"
     inkscape:window-height="1001"
     inkscape:window-x="-9"
     inkscape:window-y="-9"
     inkscape:window-maximized="1"
     inkscape:current-layer="layer1" /><defs
     id="defs1" /><g
     inkscape:label="Layer 1"
     inkscape:groupmode="layer"
     id="layer1"><path
       d="m 130.12025,154.26067 c -2.45446,2.63825 -6.93241,6.87831 -9.19612,8.70757 -5.33977,4.31496 -8.37325,7.3364 -10.54884,10.50697 -0.78518,1.14428 -1.53218,2.11841 -1.65999,2.16474 -0.1278,0.0463 -0.0938,-0.92482 0.0755,-2.15809 1.02378,-7.45629 0.35428,-15.66463 -1.59407,-19.54371 -0.84571,-1.68377 -2.87185,-4.04456 -4.00043,-4.66117 -2.23337,-1.22022 -5.324216,-1.16074 -8.327629,0.16028 -1.59846,0.70307 -4.731843,2.69226 -5.84555,3.71097 -0.47994,0.43899 -0.487979,0.4233 -0.30477,-0.59377 0.15763,-0.87503 0.515609,-1.44293 2.204495,-3.49725 1.769957,-2.15229 2.190028,-2.54013 3.436302,-3.16831 1.853115,-0.93406 4.534201,-1.50277 5.949782,-1.26207 1.53654,0.2613 4.42411,1.57827 5.6034,2.55565 2.75175,2.28062 4.74033,6.35125 5.29775,10.84453 0.24019,1.93615 0.51324,1.84347 1.08564,-0.36845 1.3362,-5.16345 0.12054,-11.2794 -3.07547,-15.47263 -0.64312,-0.84379 -1.99698,-2.19615 -3.12791,-3.12443 -1.09649,-0.90044 -1.93352,-1.71014 -1.85967,-1.7998 0.0739,-0.0897 1.01803,0.21535 2.09812,0.67789 3.84244,1.64551 7.10682,5.06246 8.67979,9.08545 1.25561,3.21134 1.30987,7.60957 0.17498,14.18496 l -0.39443,2.28529 0.9487,-0.89371 c 2.26272,-2.13155 7.31586,-6.49978 8.93347,-7.72264 2.22279,-1.68034 4.66169,-3.9802 6.18274,-5.83027 2.32819,-2.8317 5.13914,-8.19908 5.72728,-10.93567 0.30286,-1.4092 0.68374,-1.07051 0.72835,0.64765 0.0554,2.13287 -0.70976,5.59128 -1.73551,7.84465 -0.85731,1.88332 -3.38312,5.42739 -5.45589,7.65536 z M 98.108629,138.52264 c -1.339985,0.4653 -3.357193,0.43716 -4.199114,-0.0586 -0.415345,-0.24452 -1.62873,-1.00147 -2.696475,-1.68205 -1.901536,-1.21204 -4.134242,-2.23248 -4.809448,-2.19811 -2.14633,0.10924 3.174405,-3.78918 5.895399,-4.31947 2.129675,-0.41505 3.572146,-0.079 5.131325,1.19554 1.041678,0.85141 1.390744,1.2825 1.4385,1.7761 0.06006,0.62072 0.03326,0.62722 -0.562769,0.13635 -0.710581,-0.58521 -2.775384,-0.8055 -3.994008,-0.42612 -0.43964,0.13687 -0.760402,0.28094 -0.712802,0.32014 0.0476,0.0392 0.766673,0.24729 1.597933,0.46244 1.131492,0.29285 1.854104,0.67258 2.874908,1.51078 0.74968,0.61611 1.462958,1.29513 1.584505,1.50964 0.297223,0.52464 -0.46429,1.39704 -1.54793,1.77337 z"
       style="fill:#ffffff"
       id="path1-4"
       sodipodi:nodetypes="sssscssssscscsssscsssscsscscsssscssscsssssccss" /></g></svg>
